<?xml version="1.0" encoding="UTF-8" standalone="no"?>
<!DOCTYPE svg PUBLIC "-//W3C//DTD SVG 1.1//EN" "http://www.w3.org/Graphics/SVG/1.1/DTD/svg11.dtd">
<svg width="100%" height="100%" viewBox="186 121 34214 16055" version="1.1" xmlns="http://www.w3.org/2000/svg" xmlns:xlink="http://www.w3.org/1999/xlink" xml:space="preserve" xmlns:serif="http://www.serif.com/" style="fill-rule:evenodd;clip-rule:evenodd;stroke-linecap:round;stroke-linejoin:round;stroke-miterlimit:1.5;">
    <g transform="matrix(1,0,0,1,-28269.7,-9941.05)">
        <g id="LOGO-c2-white-green" serif:id="LOGO c2 white green" transform="matrix(6.75655,0,0,2.0669,-34701.6,6926.73)">
            <rect x="9320.04" y="1458.38" width="907.221" height="3016.11" style="fill:none;"/>
            <g transform="matrix(0.204874,0,0,0.717062,5864.64,-6317.45)">
                <path d="M16956.9,13061.2L16956.4,13061.2C16956.4,11901.3 17894.6,10960.5 19053.6,10956.4L19053.6,10956.4L21158.4,10956.4L21158.4,13053.1L21159.1,13053.1C21159.1,14090.7 20220.8,14932.3 19061.8,14935.9L19061.8,14936L16956.9,14936L16956.9,13061.2Z"/>
            </g>
            <g transform="matrix(0.183013,0,0,0.640546,6281.27,-5326.87)">
                <path d="M16956.9,13061.2L16956.4,13061.2C16956.4,11901.3 17894.6,10960.5 19053.6,10956.4L19053.6,10956.4L21158.4,10956.4L21158.4,13053.1L21159.1,13053.1C21159.1,14090.7 20220.8,14932.3 19061.8,14935.9L19061.8,14936L16956.9,14936L16956.9,13061.2Z" style="fill:rgb(34,114,60);stroke:white;stroke-width:0.78px;"/>
            </g>
            <g transform="matrix(0.25612,0,0,0.837237,5131.9,-297.968)">
                <circle cx="18098.2" cy="3895.37" r="1574.62" style="fill:white;stroke:black;stroke-width:180.59px;"/>
            </g>
            <g transform="matrix(0.802545,0.321358,-0.100097,2.67123,9386.75,1254.11)">
                <path d="M448.952,865.295C449.136,865.178 449.242,865.118 449.242,865.118C449.242,865.118 472.928,822.541 481.144,803.973C489.361,785.406 497.453,772.43 497.987,766.724C498.066,765.882 498.228,764.982 498.447,764.059C498.473,763.839 498.5,763.646 498.526,763.497C498.69,762.568 494.759,758.053 491.262,755.376C487.766,752.699 475.574,749.622 468.114,751.955C464.326,753.139 442.016,754.441 431.721,753.989C427.009,753.782 418.144,751.631 410.081,750.384C366.646,743.664 361.503,735.325 347.844,729.151C334.185,722.977 307.141,699.921 299.82,692.764C292.499,685.607 265.618,668.287 258.406,663.565C251.194,658.843 235.35,648.181 222.073,639.385C208.797,630.589 188.527,604.801 188.527,604.801L187.653,602.178C187.653,602.178 187.216,601.85 191.095,604.145C194.974,606.44 209.944,610.975 222.729,614.963C235.514,618.951 239.383,618.023 251.895,620.208C264.406,622.393 288.774,622.557 309.371,621.956C329.969,621.355 350.457,625.07 379.469,631.166C408.48,637.261 437.492,654.003 453.664,661.925C469.836,669.848 479.779,686.818 485.68,692.664C491.581,698.51 493.821,711.295 496.334,723.041C498.847,734.788 497.809,750.305 498.246,751.67C498.616,752.825 501.678,753.121 502.618,753.185C502.79,752.838 502.89,752.646 502.89,752.646C502.89,752.646 518.173,709.215 520.307,699.611C522.186,691.155 528.283,670.458 529.205,663.153C529.316,660.584 527.455,658.23 524.731,655.506C521.863,652.638 504.994,644.306 497.618,640.823C490.242,637.34 465.11,625.798 451.041,618.998C436.973,612.197 410.816,594.997 390.806,582.909C370.796,570.821 364.418,560.85 349.53,545.143C334.642,529.435 333.77,519.457 321.282,499.932C307.433,478.277 290.345,465.716 290.755,464.965C291.164,464.214 265.417,438.672 259.954,432.935C254.49,427.198 254.49,424.398 242.812,413.539C231.134,402.68 230.382,401.793 230.382,401.793C230.382,401.793 231.68,402.612 246.773,411.012C261.866,419.413 262.754,419.617 273.818,424.193C284.881,428.769 302.638,433.891 312.745,437.032C322.853,440.174 335.419,443.384 341.087,444.135C346.756,444.886 358.844,448.711 383.362,455.813C407.879,462.916 421.675,474.253 431.782,479.17C441.89,484.087 480.203,516.937 495.911,532.494C511.619,548.052 518.243,569.797 525.824,591.551C533.404,613.305 530.195,650.762 530.195,650.762L532.175,651.309L532.146,651.426C532.165,651.395 532.175,651.378 532.175,651.378C532.175,651.378 552.017,567.254 553.646,560.068C553.688,559.009 553.864,557.682 554.218,556.027C556.256,546.484 556.819,536.497 556.952,533.356C555.959,532.938 554.597,530.86 553.201,528.96C551.494,526.638 550.854,525.691 548.942,524.12C547.03,522.549 547.737,522.951 535.786,518.307C523.834,513.663 529.515,516.707 509.014,509.633C498.836,506.121 462.931,476.541 456.974,471.388C451.236,466.425 426.668,444.634 422.212,440.246C418.047,436.145 392.495,402.505 391.666,400.863C387.227,392.07 371.793,376.072 365.714,370.317C359.636,364.561 345.218,346.723 313.536,320.107C310.628,317.664 292.78,303.127 292.78,303.127L292.271,302.087L292.108,301.169C292.108,301.169 292.576,301.27 293.153,301.605C294.09,302.149 294.917,302.722 302.79,306.587C305.765,308.047 307.716,309.174 311.149,310.995C326.755,319.276 361.376,335.26 376.711,340.128C393.187,345.357 413.932,348.899 454.652,365.801C494.948,382.528 526.749,406.329 536.839,420.918C546.495,434.88 557.119,458.026 559.873,468.986C562.627,479.946 562.102,497.353 561.927,502.598C561.752,507.843 560.223,511.514 558.737,514.53C557.25,517.546 556.507,521.786 557.032,524.015C557.433,525.721 558.465,525.941 558.927,525.951C559.445,525.94 560.605,525.732 561.657,524.253C562.1,523.631 567.121,503.082 568.913,496.423C570.706,489.765 570.535,472.093 570.194,464.923C569.852,457.752 548.169,408.153 548.169,408.153C548.169,408.153 540.486,383.055 535.364,353.176C530.242,323.297 540.4,300.333 543.132,292.138C545.51,285.004 559.659,261.184 564.75,254.68C565.508,253.712 602.463,195.245 603.317,195.074C604.17,194.903 628.073,148.719 632.854,139.243C637.635,129.767 639.769,122.853 639.769,122.853C639.769,122.853 640.267,121.841 640.79,120.693C641.184,119.829 640.525,135.652 640.516,145.296C640.508,153.767 641.454,160.056 641.414,163.928C641.329,172.208 649.501,213.172 651.976,225.465C654.452,237.758 659.446,250.435 666.809,282.875C674.172,315.315 667.449,326.626 662.754,349.992C658.059,373.358 637.144,401.106 633.942,405.054C630.741,409.003 613.668,428.21 613.668,428.21C613.668,428.21 608.96,434.543 605.664,438.561C602.45,442.481 599.582,447.845 594.993,453.497C590.405,459.149 578.026,486.367 578.026,486.367L567.755,527.163L567.589,527.802C567.998,527.716 568.484,527.588 568.744,527.43C569.136,527.193 569.664,526.819 569.981,526.489C570.444,526.009 571.37,523.552 571.37,523.552C571.37,523.552 574.571,517.043 576.812,509.04C579.053,501.036 584.709,484.603 589.724,476.92C594.739,469.237 609.999,453.017 617.255,445.867C624.512,438.718 651.723,424.205 659.619,420.684C667.516,417.162 692.059,410.76 701.129,407.985C710.2,405.211 741.466,400.195 752.991,398.808C764.515,397.421 795.034,389.524 806.132,387.177C817.23,384.829 848.71,371.597 848.71,371.597L855.966,370.317C855.966,370.317 854.365,371.49 851.271,372.984C848.176,374.478 830.402,389.785 825.734,392.786C821.065,395.787 802.724,414.294 797.222,419.297C791.72,424.299 772.712,447.808 769.711,452.81C766.709,457.812 746.368,481.989 734.03,491.993C721.691,501.997 682.842,514.335 665.835,520.171C648.828,526.007 610.312,531.342 595.306,531.342C580.968,531.342 571.373,531.597 565.1,536.908C564.814,537.262 564.243,538.024 563.602,539.183C562.684,540.844 559.545,562.76 559.545,562.76L559.52,562.766C558.808,566.081 542.812,640.475 540,646.109C537.124,651.872 538.759,653.6 538.759,653.6L539.912,654.185C539.934,654.073 540,653.924 540,653.924L539.936,654.197L540,654.23L539.985,654.293C540.11,654.23 540.409,653.922 541.056,653.071C542.678,650.937 546.093,641.888 553.862,626.777C561.63,611.667 575.46,600.313 585.192,592.118C594.924,583.923 610.29,579.483 635.132,572.056C659.974,564.629 686.882,567.322 701.139,565.786C715.395,564.249 784.031,566.213 805.459,568.176C826.886,570.14 872.216,568.518 875.375,568.176C878.534,567.835 894.071,565.957 894.071,565.957C894.071,565.957 885.619,570.396 883.57,570.823C881.522,571.249 869.57,577.823 864.789,579.53C860.009,581.237 840.545,591.311 835.764,593.445C830.984,595.579 792.397,619.482 792.397,619.482C792.397,619.482 768.836,636.044 747.408,649.703C725.981,663.362 682.187,669.679 682.187,669.679C682.187,669.679 653.9,671.642 645.79,672.24C637.68,672.837 639.473,672.411 595.935,672.752C553.027,673.089 538.394,662.812 537.979,662.514L537.97,662.552C537.97,662.552 531.013,683.45 526.745,700.609C522.476,717.768 517.354,734.073 515.647,738.256C513.94,742.439 508.732,754.135 509.074,756.098C509.114,756.328 509.112,756.608 509.079,756.923C510.82,757.265 513.518,757.553 514.337,756.301C519.535,748.352 521.92,735.679 547.375,714.897C573.412,693.641 612.19,691.037 625.166,689.18C637.296,687.445 695.232,691.101 706.053,691.955C715.347,692.688 750.337,699.958 756.527,701.452C762.716,702.946 783.951,706.894 801.878,709.882C819.806,712.87 856.514,710.949 856.514,710.949L868.679,710.096L857.261,715.538C857.261,715.538 849.898,719.593 823.22,726.529C796.543,733.465 754.803,753.045 752.472,754.38C749.975,755.81 729.086,765.364 717.316,772.414C705.275,779.628 659.159,786.5 650.089,787.247C641.019,787.994 609.539,786.5 598.761,785.219C587.984,783.939 577.024,782.305 566.215,779.991C557.623,778.151 558.19,778.445 547.22,773.695C539.792,770.478 528.321,768.056 518.22,765.746C514.356,764.862 506.802,768.131 504.061,769.84L504.094,769.705C499.241,780.871 484.405,814.997 481.841,820.807C478.768,827.773 460.602,862.262 459.851,863.696C459.243,864.855 461.671,865.435 462.623,865.614C464.758,856.581 472.533,844.485 508.973,847.081C597.795,853.408 638.347,898.348 725.221,966.733C707.57,963.035 684.61,954.587 663.838,950.56C625.975,943.221 560.602,957.472 498.046,922.696C472.653,908.58 463.638,885.576 462.041,881.501L460.732,874.672C460.735,874.67 460.739,874.668 460.743,874.665C460.538,874.446 460.289,874.184 459.987,873.872C457.938,871.755 456.119,871.864 455.168,873.822C454.217,875.78 442.897,900.205 436.068,911.986C429.238,923.767 412.933,954.243 409.347,960.731C405.762,967.219 398.933,977.719 397.14,983.012L388.947,999.359L373.261,990.396L375.288,986.874C375.288,986.874 439.09,889.171 442.584,876.832C442.311,876.519 441.661,875.942 440.747,876.196C439.518,876.538 408.171,884.46 385.292,882.889C362.414,881.318 329.564,865.747 316.861,859.601C304.158,853.454 279.641,835.015 265.504,822.517C251.367,810.019 219.337,780.379 215.103,776.145C210.868,771.911 188.468,750.603 188.468,750.603L185.736,747.256C185.736,747.256 186.419,747.666 193.795,750.33C201.171,752.993 222.973,755.65 228.898,756.203C234.371,756.714 289.68,760.027 319.685,763.101C349.689,766.174 386.34,780.516 414.272,795.95C442.205,811.385 447.901,830.989 448.95,839.346C449.999,847.703 447.971,850.85 446.817,855.85C445.663,860.851 446.024,864.989 446.024,864.989L448.952,865.295Z" style="fill:rgb(34,114,60);"/>
            </g>
        </g>
    </g>
</svg>
